<?xml version="1.0"?>
<svg xmlns="http://www.w3.org/2000/svg" xmlns:xlink="http://www.w3.org/1999/xlink" version="1.1" id="Layer_1" x="0px" y="0px" viewBox="0 0 280.028 280.028" style="enable-background:new 0 0 280.028 280.028;" xml:space="preserve" width="512px" height="512px" class=""><g><g>
	<path style="fill:#F00000" d="M17.502,148.766h245.024c9.661,0,17.502,7.841,17.502,17.502v78.758   c0,9.67-7.841,17.502-17.502,17.502H17.502C7.841,262.526,0,254.695,0,245.025v-78.758C0,156.605,7.841,148.766,17.502,148.766z" data-original="#BF392C" class="" data-old_color="#f00000"/>
	<path style="fill:#324D5B" d="M140.014,17.503c14.491,0,26.253,7.841,26.253,17.502h17.502   c-0.001-19.331-19.585-35.004-43.755-35.004S96.259,15.674,96.259,35.004h17.502C113.761,25.343,125.522,17.503,140.014,17.503z" data-original="#324D5B" class=""/>
	<path style="fill:#490808" d="M78.758,35.004H201.27c28.992,0,52.505,23.514,52.505,52.505v175.017   c0,9.67-7.841,17.502-17.502,17.502H43.754c-9.661,0-17.502-7.832-17.502-17.502V87.51C26.253,58.518,49.757,35.004,78.758,35.004z   " data-original="#E2574C" class="active-path" data-old_color="#F00000"/>
	<path style="fill:#F00000" d="M52.505,35.004h175.017c19.331,0,35.003,15.673,35.003,35.003v35.003   c0,19.331-15.673,35.003-35.003,35.003H52.505c-19.331,0-35.003-15.673-35.003-35.003V70.008   C17.502,50.677,33.174,35.004,52.505,35.004z" data-original="#BF392C" class="" data-old_color="#f00000"/>
	<g>
		<g>
			<path style="fill:#324D5B" d="M70.007,218.771c0,0,6.747,17.502,13.398,17.502c6.476,0,12.855-17.502,12.855-17.502V35.004     H70.007V218.771z M183.768,35.004v183.768c0,0,6.747,17.502,13.398,17.502c6.476,0,12.855-17.502,12.855-17.502V35.004H183.768z" data-original="#EFC75E" class="" data-old_color="#EFC75E"/>
		</g>
	</g>
	<g>
		<g>
			<path style="fill:#E4E7E7" d="M61.256,201.271h43.754v-26.253H61.256V201.271z M175.017,175.018v26.253h43.754v-26.253H175.017z     " data-original="#E4E7E7" class="" data-old_color="#FC00FF"/>
		</g>
	</g>
</g></g> </svg>
