<?xml version="1.0" encoding="UTF-8" standalone="no"?>
<!-- Created with Inkscape (http://www.inkscape.org/) -->

<svg
   xmlns:dc="http://purl.org/dc/elements/1.1/"
   xmlns:cc="http://creativecommons.org/ns#"
   xmlns:rdf="http://www.w3.org/1999/02/22-rdf-syntax-ns#"
   xmlns:svg="http://www.w3.org/2000/svg"
   xmlns="http://www.w3.org/2000/svg"
   xmlns:sodipodi="http://sodipodi.sourceforge.net/DTD/sodipodi-0.dtd"
   xmlns:inkscape="http://www.inkscape.org/namespaces/inkscape"
   width="107.84864mm"
   height="58.01009mm"
   viewBox="0 0 107.84864 58.01009"
   version="1.1"
   id="svg3882"
   inkscape:version="0.92.3 (3ce5693, 2018-03-11)"
   sodipodi:docname="left.svg">
  <defs
     id="defs3876">
    <clipPath
       clipPathUnits="userSpaceOnUse"
       id="clipPath1490">
      <rect
         id="rect1492"
         width="229.381"
         height="318.36765"
         x="133.85477"
         y="-503.22122"
         ry="12.5429"
         style="stroke-width:1.21995711"
         transform="rotate(90)" />
    </clipPath>
  </defs>
  <sodipodi:namedview
     id="base"
     pagecolor="#ffffff"
     bordercolor="#666666"
     borderopacity="1.0"
     inkscape:pageopacity="0.0"
     inkscape:pageshadow="2"
     inkscape:zoom="1.979899"
     inkscape:cx="105.56441"
     inkscape:cy="86.414561"
     inkscape:document-units="mm"
     inkscape:current-layer="g6321"
     showgrid="false"
     inkscape:snap-grids="true"
     inkscape:measure-start="0,0"
     inkscape:measure-end="0,0"
     inkscape:window-width="1855"
     inkscape:window-height="1020"
     inkscape:window-x="65"
     inkscape:window-y="28"
     inkscape:window-maximized="1" />
  <metadata
     id="metadata3879">
    <rdf:RDF>
      <cc:Work
         rdf:about="">
        <dc:format>image/svg+xml</dc:format>
        <dc:type
           rdf:resource="http://purl.org/dc/dcmitype/StillImage" />
        <dc:title />
      </cc:Work>
    </rdf:RDF>
  </metadata>
  <g
     inkscape:label="Layer 1"
     inkscape:groupmode="layer"
     id="layer1"
     transform="translate(-0.05515285,-0.0942113)">
    <g
       id="g6323"
       clip-path="none"
       transform="matrix(0,-0.26458333,0.26458333,0,0.05515285,58.104301)">
      <g
         inkscape:label="Clip"
         id="g6321">
        <g
           clip-path="url(#clipPath1490)"
           transform="rotate(-90,178.15215,315.20383)"
           id="g4255"
           style="fill:#00ff00;fill-opacity:1">
          <path
             inkscape:connector-curvature="0"
             id="path4253"
             d="M 490.498,239.278 380.866,139.349 c -3.046,-2.474 -6.376,-2.95 -9.993,-1.427 -3.613,1.525 -5.427,4.283 -5.427,8.282 v 63.954 H 9.136 c -2.666,0 -4.856,0.855 -6.567,2.568 C 0.859,214.438 0,216.628 0,219.292 v 54.816 c 0,2.663 0.855,4.853 2.568,6.563 1.715,1.712 3.905,2.567 6.567,2.567 h 356.313 v 63.953 c 0,3.812 1.817,6.57 5.428,8.278 3.62,1.529 6.95,0.951 9.996,-1.708 L 490.504,252.684 c 1.903,-1.902 2.852,-4.182 2.852,-6.849 0,-2.468 -0.955,-4.654 -2.858,-6.557 z"
             style="fill:#00ff00;fill-opacity:1" />
        </g>
        <g
           transform="translate(-1.1708862,87.355804)"
           id="g4257"
           style="fill:#00ff00;fill-opacity:1" />
        <g
           transform="translate(-1.1708862,87.355804)"
           id="g4259"
           style="fill:#00ff00;fill-opacity:1" />
        <g
           transform="translate(-1.1708862,87.355804)"
           id="g4261"
           style="fill:#00ff00;fill-opacity:1" />
        <g
           transform="translate(-1.1708862,87.355804)"
           id="g4263"
           style="fill:#00ff00;fill-opacity:1" />
        <g
           transform="translate(-1.1708862,87.355804)"
           id="g4265"
           style="fill:#00ff00;fill-opacity:1" />
        <g
           transform="translate(-1.1708862,87.355804)"
           id="g4267"
           style="fill:#00ff00;fill-opacity:1" />
        <g
           transform="translate(-1.1708862,87.355804)"
           id="g4269"
           style="fill:#00ff00;fill-opacity:1" />
        <g
           transform="translate(-1.1708862,87.355804)"
           id="g4271"
           style="fill:#00ff00;fill-opacity:1" />
        <g
           transform="translate(-1.1708862,87.355804)"
           id="g4273"
           style="fill:#00ff00;fill-opacity:1" />
        <g
           transform="translate(-1.1708862,87.355804)"
           id="g4275"
           style="fill:#00ff00;fill-opacity:1" />
        <g
           transform="translate(-1.1708862,87.355804)"
           id="g4277"
           style="fill:#00ff00;fill-opacity:1" />
        <g
           transform="translate(-1.1708862,87.355804)"
           id="g4279"
           style="fill:#00ff00;fill-opacity:1" />
        <g
           transform="translate(-1.1708862,87.355804)"
           id="g4281"
           style="fill:#00ff00;fill-opacity:1" />
        <g
           transform="translate(-1.1708862,87.355804)"
           id="g4283"
           style="fill:#00ff00;fill-opacity:1" />
        <g
           transform="translate(-1.1708862,87.355804)"
           id="g4285"
           style="fill:#00ff00;fill-opacity:1" />
        <rect
           style="stroke-width:1.00722682;fill:#00ff00;fill-opacity:1"
           ry="7.316679"
           y="216.80341"
           x="73.1063"
           height="190.39758"
           width="73.102463"
           id="rect1494" />
        <path
           style="fill:#00ff00;stroke-width:0.50507629;fill-opacity:1"
           d="M 115.11035,218.3243 C 112.55213,217.15212 2.6403526,116.68478 1.3419212,114.33169 0.71688934,113.19898 0.20549962,111.51706 0.20549962,110.5941 c 0,-4.29147 -1.38858742,-2.91003 57.38039638,-57.085227 C 88.269254,25.223936 114.10547,1.69129 114.9997,1.2141067 c 3.41045,-1.81989043 8.76264,-0.47119165 11.09253,2.7952051 l 1.13995,1.5981484 0.25254,33.8401098 0.25254,33.84011 h 136.87567 c 130.81184,0 136.94938,0.04026 138.5395,0.908405 0.91511,0.499622 2.1075,1.636043 2.64976,2.525382 0.94972,1.557589 0.986,2.763353 0.98782,32.830513 0.002,34.44639 0.11305,33.21694 -3.17936,35.22444 -1.59324,0.97146 -3.63166,0.98596 -138.86109,0.98782 l -137.2441,0.002 -0.13664,33.96638 -0.13664,33.96638 -1.12648,1.57923 c -2.10897,2.95663 -7.76873,4.52462 -10.99535,3.04619 z"
           id="path126"
           inkscape:connector-curvature="0"
           transform="rotate(90,109.62537,109.62537)" />
        <path
           style="fill:#00ff00;stroke-width:0.50507629;fill-opacity:1"
           d="M 113.03489,216.36116 C 95.566743,201.25681 8.6425411,121.79129 2.6294061,115.42921 1.8791151,114.63538 1.0202763,113.07615 0.7208754,111.96426 -0.15692089,108.70438 0.94784253,106.92562 8.4362619,99.541853 20.745171,87.404976 111.929,3.6049043 115.05528,1.5564888 c 1.79559,-1.17651381 6.83903,-0.84231203 8.74322,0.5793653 3.35593,2.5055701 3.12198,0.00581 3.50274,37.4256499 l 0.34549,33.954046 137.19577,0.138604 c 130.09089,0.131425 137.26619,0.184741 138.5554,1.029522 3.29742,2.160691 3.14203,0.466574 3.13591,34.189584 -0.006,32.46202 -0.10096,33.87497 -2.38062,35.37764 -1.6503,1.08781 -34.78963,1.37577 -167.11182,1.45211 l -109.39391,0.0631 -0.33298,14.77349 c -0.18313,8.12541 -0.33339,23.43645 -0.33391,34.02453 -0.001,18.9921 -0.0156,19.26981 -1.09765,20.64531 -1.50724,1.91614 -4.7131,3.26331 -7.79727,3.27657 -2.31513,0.01 -2.83461,-0.2086 -5.05076,-2.12486 z"
           id="path128"
           inkscape:connector-curvature="0"
           transform="rotate(90,109.62537,109.62537)" />
        <path
           style="fill:#00ff00;stroke-width:0.50507629;fill-opacity:1"
           d="M 113.30723,216.61662 C 102.7317,207.72845 17.857739,130.27382 4.7162878,117.51826 0.70123713,113.62112 -0.39158764,111.09367 0.7262931,108.29037 1.0950053,107.36575 4.559004,103.46601 8.5008167,99.537883 20.667488,87.413436 111.48019,3.8989784 115.01848,1.5806001 c 1.83212,-1.20044742 6.8538,-0.88287265 8.78002,0.555254 3.41206,2.5474725 3.167,-0.053981 3.52616,37.4330809 l 0.32523,33.946615 137.1942,0.138604 c 130.08937,0.131425 137.2646,0.184741 138.55381,1.029522 3.30027,2.162565 3.14192,0.411182 3.137,34.694794 -0.005,35.17518 0.0897,34.24744 -3.617,35.40865 -1.47629,0.46247 -34.29966,0.66274 -138.60261,0.84566 l -136.66824,0.23969 -0.3337,19.72752 c -0.18354,10.85014 -0.33371,26.13725 -0.33371,33.97136 0,13.85384 -0.03,14.28202 -1.09672,15.6381 -1.50406,1.9121 -4.71132,3.26328 -7.77747,3.27657 -2.22654,0.01 -2.85274,-0.23433 -4.79822,-1.8694 z"
           id="path130"
           inkscape:connector-curvature="0"
           transform="rotate(90,109.62537,109.62537)" />
      </g>
    </g>
  </g>
</svg>
