<?xml version="1.0" encoding="UTF-8" standalone="no"?>
<!-- Generator: Adobe Illustrator 16.0.0, SVG Export Plug-In . SVG Version: 6.00 Build 0)  -->

<svg
   xmlns:dc="http://purl.org/dc/elements/1.1/"
   xmlns:cc="http://creativecommons.org/ns#"
   xmlns:rdf="http://www.w3.org/1999/02/22-rdf-syntax-ns#"
   xmlns:svg="http://www.w3.org/2000/svg"
   xmlns="http://www.w3.org/2000/svg"
   xmlns:sodipodi="http://sodipodi.sourceforge.net/DTD/sodipodi-0.dtd"
   xmlns:inkscape="http://www.inkscape.org/namespaces/inkscape"
   version="1.1"
   id="Capa_1"
   x="0px"
   y="0px"
   width="512px"
   height="512px"
   viewBox="0 0 476.195 476.195"
   style="enable-background:new 0 0 476.195 476.195;"
   xml:space="preserve"
   sodipodi:docname="wood-closed-door-with-stones-arch-frame (1).svg"
   inkscape:version="0.92.2 2405546, 2018-03-11"><metadata
   id="metadata87"><rdf:RDF><cc:Work
       rdf:about=""><dc:format>image/svg+xml</dc:format><dc:type
         rdf:resource="http://purl.org/dc/dcmitype/StillImage" /></cc:Work></rdf:RDF></metadata><defs
   id="defs85" /><sodipodi:namedview
   pagecolor="#ffffff"
   bordercolor="#666666"
   borderopacity="1"
   objecttolerance="10"
   gridtolerance="10"
   guidetolerance="10"
   inkscape:pageopacity="0"
   inkscape:pageshadow="2"
   inkscape:window-width="1155"
   inkscape:window-height="796"
   id="namedview83"
   showgrid="false"
   inkscape:zoom="0.4609375"
   inkscape:cx="141.01695"
   inkscape:cy="82.440678"
   inkscape:window-x="18"
   inkscape:window-y="138"
   inkscape:window-maximized="0"
   inkscape:current-layer="Capa_1" />
<g
   id="g50"
   style="fill:#6600ff;fill-opacity:1">
	<g
   id="g48"
   style="fill:#6600ff;fill-opacity:1">
		<rect
   x="18.999"
   y="422.297"
   width="92.107"
   height="53.898"
   fill="#933EC5"
   id="rect2"
   style="fill:#6600ff;fill-opacity:1" />
		<rect
   x="365.089"
   y="422.297"
   width="92.105"
   height="53.898"
   fill="#933EC5"
   id="rect4"
   style="fill:#6600ff;fill-opacity:1" />
		<rect
   x="361.421"
   y="381.613"
   width="53.73"
   height="34.219"
   fill="#933EC5"
   id="rect6"
   style="fill:#6600ff;fill-opacity:1" />
		<rect
   x="61.042"
   y="381.613"
   width="53.732"
   height="34.219"
   fill="#933EC5"
   id="rect8"
   style="fill:#6600ff;fill-opacity:1" />
		<rect
   x="18.999"
   y="321.246"
   width="92.107"
   height="53.898"
   fill="#933EC5"
   id="rect10"
   style="fill:#6600ff;fill-opacity:1" />
		<rect
   x="18.999"
   y="220.198"
   width="92.107"
   height="53.899"
   fill="#933EC5"
   id="rect12"
   style="fill:#6600ff;fill-opacity:1" />
		<rect
   x="365.089"
   y="321.246"
   width="92.105"
   height="53.898"
   fill="#933EC5"
   id="rect14"
   style="fill:#6600ff;fill-opacity:1" />
		<rect
   x="365.089"
   y="220.198"
   width="92.105"
   height="53.899"
   fill="#933EC5"
   id="rect16"
   style="fill:#6600ff;fill-opacity:1" />
		<path
   d="M362.622,184.983l95.24-22.63l-28.656-82.439l-97.271,45.298C347.058,141.738,357.882,162.256,362.622,184.983z"
   fill="#933EC5"
   id="path18"
   style="fill:#6600ff;fill-opacity:1" />
		<path
   d="M144.26,125.211L46.99,79.913l-28.657,82.439l95.241,22.63C118.315,162.256,129.138,141.738,144.26,125.211z"
   fill="#933EC5"
   id="path20"
   style="fill:#6600ff;fill-opacity:1" />
		<path
   d="M325.913,0h-175.63l27.712,98.915c17.91-9.644,38.378-15.122,60.104-15.122s42.193,5.479,60.105,15.122L325.913,0z"
   fill="#933EC5"
   id="path22"
   style="fill:#6600ff;fill-opacity:1" />
		<path
   d="M361.421,213.731h53.73v-34.582l-55.152,13.104c0.938,6.112,1.422,12.372,1.422,18.743V213.731z"
   fill="#933EC5"
   id="path24"
   style="fill:#6600ff;fill-opacity:1" />
		<rect
   x="61.042"
   y="280.564"
   width="53.732"
   height="34.217"
   fill="#933EC5"
   id="rect26"
   style="fill:#6600ff;fill-opacity:1" />
		<rect
   x="361.421"
   y="280.564"
   width="53.73"
   height="34.217"
   fill="#933EC5"
   id="rect28"
   style="fill:#6600ff;fill-opacity:1" />
		<path
   d="M173.296,106.116l-23.843-85.105l-50.494,6.02L74.616,85.647l78.156,36.396    C159.021,116.045,165.901,110.702,173.296,106.116z"
   fill="#933EC5"
   id="path30"
   style="fill:#6600ff;fill-opacity:1" />
		<path
   d="M323.423,122.041l77.312-36.003l-26.342-58.999l-47.799-5.502l-23.695,84.578    C310.296,110.702,317.175,116.045,323.423,122.041z"
   fill="#933EC5"
   id="path32"
   style="fill:#6600ff;fill-opacity:1" />
		<path
   d="M61.042,213.731h53.732v-2.734c0-6.371,0.485-12.631,1.422-18.743L61.042,179.15V213.731z"
   fill="#933EC5"
   id="path34"
   style="fill:#6600ff;fill-opacity:1" />
		<path
   d="M243.836,476.195h38.523V102.823c-11.976-4.905-24.943-7.885-38.523-8.541V476.195z"
   fill="#933EC5"
   id="path36"
   style="fill:#6600ff;fill-opacity:1" />
		<path
   d="M193.836,476.195h38.523V94.282c-13.58,0.656-26.548,3.636-38.523,8.541V476.195z"
   fill="#933EC5"
   id="path38"
   style="fill:#6600ff;fill-opacity:1" />
		<path
   d="M293.837,108.265v367.93h38.521V141.93C322.187,128.068,309.032,116.528,293.837,108.265z"
   fill="#933EC5"
   id="path40"
   style="fill:#6600ff;fill-opacity:1" />
		<path
   d="M343.837,476.195h11.117V210.996c0-17.811-3.99-34.688-11.117-49.794V476.195z"
   fill="#933EC5"
   id="path42"
   style="fill:#6600ff;fill-opacity:1" />
		<path
   d="M143.836,141.93v334.265h38.523v-367.93C167.163,116.528,154.01,128.068,143.836,141.93z M173.573,292.23    c0,5.785-4.689,10.476-10.475,10.476s-10.475-4.688-10.475-10.476c0-5.785,4.689-10.475,10.475-10.475    S173.573,286.445,173.573,292.23z"
   fill="#933EC5"
   id="path44"
   style="fill:#6600ff;fill-opacity:1" />
		<path
   d="M121.242,476.195h11.118V161.202c-7.127,15.106-11.118,31.983-11.118,49.794V476.195z"
   fill="#933EC5"
   id="path46"
   style="fill:#6600ff;fill-opacity:1" />
	</g>
</g>
<g
   id="g52">
</g>
<g
   id="g54">
</g>
<g
   id="g56">
</g>
<g
   id="g58">
</g>
<g
   id="g60">
</g>
<g
   id="g62">
</g>
<g
   id="g64">
</g>
<g
   id="g66">
</g>
<g
   id="g68">
</g>
<g
   id="g70">
</g>
<g
   id="g72">
</g>
<g
   id="g74">
</g>
<g
   id="g76">
</g>
<g
   id="g78">
</g>
<g
   id="g80">
</g>
</svg>