<?xml version="1.0" encoding="UTF-8" standalone="no"?>
<!-- Generator: Adobe Illustrator 16.0.0, SVG Export Plug-In . SVG Version: 6.00 Build 0)  -->

<svg
   xmlns:dc="http://purl.org/dc/elements/1.1/"
   xmlns:cc="http://creativecommons.org/ns#"
   xmlns:rdf="http://www.w3.org/1999/02/22-rdf-syntax-ns#"
   xmlns:svg="http://www.w3.org/2000/svg"
   xmlns="http://www.w3.org/2000/svg"
   xmlns:xlink="http://www.w3.org/1999/xlink"
   xmlns:sodipodi="http://sodipodi.sourceforge.net/DTD/sodipodi-0.dtd"
   xmlns:inkscape="http://www.inkscape.org/namespaces/inkscape"
   version="1.1"
   id="Capa_1"
   x="0px"
   y="0px"
   width="219.25073"
   height="318.30756"
   viewBox="0 0 219.25074 318.30756"
   xml:space="preserve"
   sodipodi:docname="down.svg"
   inkscape:version="0.92.3 (3ce5693, 2018-03-11)"><metadata
     id="metadata4292"><rdf:RDF><cc:Work
         rdf:about=""><dc:format>image/svg+xml</dc:format><dc:type
           rdf:resource="http://purl.org/dc/dcmitype/StillImage" /><dc:title /></cc:Work></rdf:RDF></metadata><defs
     id="defs4290"><marker
       id="Arrow2Sstart"
       inkscape:isstock="true"
       inkscape:stockid="Arrow2Sstart"
       orient="auto"
       refX="0"
       refY="0"
       style="overflow:visible"><path
         d="M 8.72,4.03 -2.21,0.02 8.72,-4 c -1.75,2.37 -1.74,5.62 0,8.03 z"
         id="Arrow2SstartPath"
         style="fill:#000000;fill-opacity:1;stroke:none"
         transform="matrix(0.3,0,0,0.3,-0.69,0)"
         inkscape:connector-curvature="0" /></marker><marker
       id="Arrow2Send"
       inkscape:isstock="true"
       inkscape:stockid="Arrow2Send"
       orient="auto"
       refX="0"
       refY="0"
       style="overflow:visible"><path
         d="M 8.72,4.03 -2.21,0.02 8.72,-4 c -1.75,2.37 -1.74,5.62 0,8.03 z"
         id="Arrow2SendPath"
         style="fill:#000000;fill-opacity:1;stroke:none"
         transform="matrix(-0.3,0,0,-0.3,0.69,0)"
         inkscape:connector-curvature="0" /></marker><clipPath
       clipPathUnits="userSpaceOnUse"
       id="clipPath1490"><rect
         id="rect1492"
         width="229.381"
         height="318.36765"
         x="133.85477"
         y="-503.22122"
         ry="12.5429"
         style="stroke-width:1.21995711"
         transform="rotate(90)" /></clipPath></defs><sodipodi:namedview
     pagecolor="#ffffff"
     bordercolor="#666666"
     borderopacity="1"
     objecttolerance="10"
     gridtolerance="10"
     guidetolerance="10"
     inkscape:pageopacity="0"
     inkscape:pageshadow="2"
     inkscape:window-width="1855"
     inkscape:window-height="1020"
     id="namedview4288"
     showgrid="false"
     inkscape:zoom="1.3529962"
     inkscape:cx="-223.1718"
     inkscape:cy="142.17994"
     inkscape:window-x="65"
     inkscape:window-y="28"
     inkscape:window-maximized="1"
     inkscape:current-layer="Capa_1"
     inkscape:snap-center="false"
     inkscape:measure-start="753.6,40.9294"
     inkscape:measure-end="752.577,-338.66"
     inkscape:snap-smooth-nodes="false"
     inkscape:snap-grids="true"
     inkscape:snap-to-guides="false"
     inkscape:snap-page="true"
     inkscape:pagecheckerboard="false"
     borderlayer="false"
     fit-margin-top="0"
     fit-margin-left="0"
     fit-margin-right="0"
     fit-margin-bottom="0"><inkscape:grid
       type="xygrid"
       id="grid1587"
       originx="-1.1708862"
       originy="-173.51082" /></sodipodi:namedview><g
     id="g6323"
     clip-path="none"
     style="fill:#0066ff;fill-opacity:1"><g
       inkscape:label="Clip"
       id="g6321"
       style="fill:#0066ff;fill-opacity:1"><g
         clip-path="url(#clipPath1490)"
         transform="matrix(0,1,1,0,-137.05168,-175.04843)"
         id="g4255"
         style="fill:#0066ff;fill-opacity:1"><path
           inkscape:connector-curvature="0"
           id="path4253"
           d="M 490.498,239.278 380.866,139.349 c -3.046,-2.474 -6.376,-2.95 -9.993,-1.427 -3.613,1.525 -5.427,4.283 -5.427,8.282 v 63.954 H 9.136 c -2.666,0 -4.856,0.855 -6.567,2.568 C 0.859,214.438 0,216.628 0,219.292 v 54.816 c 0,2.663 0.855,4.853 2.568,6.563 1.715,1.712 3.905,2.567 6.567,2.567 h 356.313 v 63.953 c 0,3.812 1.817,6.57 5.428,8.278 3.62,1.529 6.95,0.951 9.996,-1.708 L 490.504,252.684 c 1.903,-1.902 2.852,-4.182 2.852,-6.849 0,-2.468 -0.955,-4.654 -2.858,-6.557 z"
           style="fill:#0066ff;fill-opacity:1" /></g><g
         transform="matrix(1,0,0,-1,-1.1708862,319.84517)"
         id="g4257"
         style="fill:#0066ff;fill-opacity:1" /><g
         transform="matrix(1,0,0,-1,-1.1708862,319.84517)"
         id="g4259"
         style="fill:#0066ff;fill-opacity:1" /><g
         transform="matrix(1,0,0,-1,-1.1708862,319.84517)"
         id="g4261"
         style="fill:#0066ff;fill-opacity:1" /><g
         transform="matrix(1,0,0,-1,-1.1708862,319.84517)"
         id="g4263"
         style="fill:#0066ff;fill-opacity:1" /><g
         transform="matrix(1,0,0,-1,-1.1708862,319.84517)"
         id="g4265"
         style="fill:#0066ff;fill-opacity:1" /><g
         transform="matrix(1,0,0,-1,-1.1708862,319.84517)"
         id="g4267"
         style="fill:#0066ff;fill-opacity:1" /><g
         transform="matrix(1,0,0,-1,-1.1708862,319.84517)"
         id="g4269"
         style="fill:#0066ff;fill-opacity:1" /><g
         transform="matrix(1,0,0,-1,-1.1708862,319.84517)"
         id="g4271"
         style="fill:#0066ff;fill-opacity:1" /><g
         transform="matrix(1,0,0,-1,-1.1708862,319.84517)"
         id="g4273"
         style="fill:#0066ff;fill-opacity:1" /><g
         transform="matrix(1,0,0,-1,-1.1708862,319.84517)"
         id="g4275"
         style="fill:#0066ff;fill-opacity:1" /><g
         transform="matrix(1,0,0,-1,-1.1708862,319.84517)"
         id="g4277"
         style="fill:#0066ff;fill-opacity:1" /><g
         transform="matrix(1,0,0,-1,-1.1708862,319.84517)"
         id="g4279"
         style="fill:#0066ff;fill-opacity:1" /><g
         transform="matrix(1,0,0,-1,-1.1708862,319.84517)"
         id="g4281"
         style="fill:#0066ff;fill-opacity:1" /><g
         transform="matrix(1,0,0,-1,-1.1708862,319.84517)"
         id="g4283"
         style="fill:#0066ff;fill-opacity:1" /><g
         transform="matrix(1,0,0,-1,-1.1708862,319.84517)"
         id="g4285"
         style="fill:#0066ff;fill-opacity:1" /><rect
         transform="scale(1,-1)"
         style="stroke-width:1.00722682;fill:#0066ff;fill-opacity:1"
         ry="7.316679"
         y="-190.39758"
         x="73.106308"
         height="190.39758"
         width="73.102463"
         id="rect1494" /></g></g><use
     height="100%"
     width="100%"
     id="use6327"
     xlink:href="#g6321"
     y="0"
     x="0"
     style="fill:#0066ff;fill-opacity:1" /><path
     style="fill:#0066ff;stroke-width:0.7391004;fill-opacity:1"
     d="M 101.95545,314.59807 C 96.420822,309.23707 3.1942529,206.63416 1.7254318,204.28734 c -1.6589666,-2.65063 -1.76693246,-5.43556 -0.342857,-8.84385 2.0286003,-4.85513 1.8226332,-4.82951 38.8242902,-4.82951 H 73.503086 V 97.453744 4.2934978 L 75.268257,2.528325 C 76.239103,1.55748 78.151525,0.55686185 79.518085,0.30472921 80.884644,0.05259658 95.306547,-0.05259441 111.56676,0.0709715 c 31.75515,0.24131627 31.82211,0.24949309 33.57647,4.0998847 0.54936,1.2057261 0.79169,29.9994258 0.79169,94.0688698 v 92.331284 l 33.93965,0.20626 33.93966,0.20626 1.84729,1.73599 c 1.016,0.95478 2.24468,2.69536 2.73038,3.86795 2.07858,5.01813 3.0849,3.78025 -49.6205,61.03793 -27.2534,29.60732 -51.00475,55.24502 -52.78079,56.97267 -2.94571,2.86545 -3.5611,3.14118 -7.01071,3.14118 -3.44745,0 -4.06805,-0.27752 -7.02445,-3.14118 z"
     id="path5744"
     inkscape:connector-curvature="0" /></svg>