<?xml version="1.0" encoding="UTF-8" standalone="no"?>
<!-- Created with Inkscape (http://www.inkscape.org/) -->

<svg
   xmlns:dc="http://purl.org/dc/elements/1.1/"
   xmlns:cc="http://creativecommons.org/ns#"
   xmlns:rdf="http://www.w3.org/1999/02/22-rdf-syntax-ns#"
   xmlns:svg="http://www.w3.org/2000/svg"
   xmlns="http://www.w3.org/2000/svg"
   xmlns:sodipodi="http://sodipodi.sourceforge.net/DTD/sodipodi-0.dtd"
   xmlns:inkscape="http://www.inkscape.org/namespaces/inkscape"
   width="107.84864mm"
   height="58.01009mm"
   viewBox="0 0 107.84864 58.01009"
   version="1.1"
   id="svg3882"
   inkscape:version="0.92.3 (3ce5693, 2018-03-11)"
   sodipodi:docname="left.svg">
  <defs
     id="defs3876">
    <clipPath
       clipPathUnits="userSpaceOnUse"
       id="clipPath1490">
      <rect
         id="rect1492"
         width="229.381"
         height="318.36765"
         x="133.85477"
         y="-503.22122"
         ry="12.5429"
         style="stroke-width:1.21995711"
         transform="rotate(90)" />
    </clipPath>
  </defs>
  <sodipodi:namedview
     id="base"
     pagecolor="#ffffff"
     bordercolor="#666666"
     borderopacity="1.0"
     inkscape:pageopacity="0.0"
     inkscape:pageshadow="2"
     inkscape:zoom="1.979899"
     inkscape:cx="21.721749"
     inkscape:cy="86.414561"
     inkscape:document-units="mm"
     inkscape:current-layer="g6321"
     showgrid="false"
     inkscape:snap-grids="true"
     inkscape:measure-start="0,0"
     inkscape:measure-end="0,0"
     inkscape:window-width="1855"
     inkscape:window-height="1020"
     inkscape:window-x="65"
     inkscape:window-y="28"
     inkscape:window-maximized="1" />
  <metadata
     id="metadata3879">
    <rdf:RDF>
      <cc:Work
         rdf:about="">
        <dc:format>image/svg+xml</dc:format>
        <dc:type
           rdf:resource="http://purl.org/dc/dcmitype/StillImage" />
        <dc:title />
      </cc:Work>
    </rdf:RDF>
  </metadata>
  <g
     inkscape:label="Layer 1"
     inkscape:groupmode="layer"
     id="layer1"
     transform="translate(-0.05515285,-0.0942113)">
    <g
       id="g6323"
       clip-path="none"
       transform="matrix(0,-0.26458333,0.26458333,0,0.05515285,58.104301)">
      <g
         inkscape:label="Clip"
         id="g6321">
        <g
           clip-path="url(#clipPath1490)"
           transform="rotate(-90,178.15215,315.20383)"
           id="g4255"
           style="fill:#0066ff;fill-opacity:1">
          <path
             inkscape:connector-curvature="0"
             id="path4253"
             d="M 490.498,239.278 380.866,139.349 c -3.046,-2.474 -6.376,-2.95 -9.993,-1.427 -3.613,1.525 -5.427,4.283 -5.427,8.282 v 63.954 H 9.136 c -2.666,0 -4.856,0.855 -6.567,2.568 C 0.859,214.438 0,216.628 0,219.292 v 54.816 c 0,2.663 0.855,4.853 2.568,6.563 1.715,1.712 3.905,2.567 6.567,2.567 h 356.313 v 63.953 c 0,3.812 1.817,6.57 5.428,8.278 3.62,1.529 6.95,0.951 9.996,-1.708 L 490.504,252.684 c 1.903,-1.902 2.852,-4.182 2.852,-6.849 0,-2.468 -0.955,-4.654 -2.858,-6.557 z"
             style="fill:#0066ff;fill-opacity:1" />
        </g>
        <g
           transform="translate(-1.1708862,87.355804)"
           id="g4257"
           style="fill:#0066ff;fill-opacity:1" />
        <g
           transform="translate(-1.1708862,87.355804)"
           id="g4259"
           style="fill:#0066ff;fill-opacity:1" />
        <g
           transform="translate(-1.1708862,87.355804)"
           id="g4261"
           style="fill:#0066ff;fill-opacity:1" />
        <g
           transform="translate(-1.1708862,87.355804)"
           id="g4263"
           style="fill:#0066ff;fill-opacity:1" />
        <g
           transform="translate(-1.1708862,87.355804)"
           id="g4265"
           style="fill:#0066ff;fill-opacity:1" />
        <g
           transform="translate(-1.1708862,87.355804)"
           id="g4267"
           style="fill:#0066ff;fill-opacity:1" />
        <g
           transform="translate(-1.1708862,87.355804)"
           id="g4269"
           style="fill:#0066ff;fill-opacity:1" />
        <g
           transform="translate(-1.1708862,87.355804)"
           id="g4271"
           style="fill:#0066ff;fill-opacity:1" />
        <g
           transform="translate(-1.1708862,87.355804)"
           id="g4273"
           style="fill:#0066ff;fill-opacity:1" />
        <g
           transform="translate(-1.1708862,87.355804)"
           id="g4275"
           style="fill:#0066ff;fill-opacity:1" />
        <g
           transform="translate(-1.1708862,87.355804)"
           id="g4277"
           style="fill:#0066ff;fill-opacity:1" />
        <g
           transform="translate(-1.1708862,87.355804)"
           id="g4279"
           style="fill:#0066ff;fill-opacity:1" />
        <g
           transform="translate(-1.1708862,87.355804)"
           id="g4281"
           style="fill:#0066ff;fill-opacity:1" />
        <g
           transform="translate(-1.1708862,87.355804)"
           id="g4283"
           style="fill:#0066ff;fill-opacity:1" />
        <g
           transform="translate(-1.1708862,87.355804)"
           id="g4285"
           style="fill:#0066ff;fill-opacity:1" />
        <rect
           style="stroke-width:1.00722682;fill:#0066ff;fill-opacity:1"
           ry="7.316679"
           y="216.80341"
           x="73.1063"
           height="190.39758"
           width="73.102463"
           id="rect1494" />
        <path
           style="fill:#0066ff;stroke-width:0.50507629;fill-opacity:1"
           d="M 115.11035,218.3243 C 112.55213,217.15212 2.6403526,116.68478 1.3419212,114.33169 0.71688934,113.19898 0.20549962,111.51706 0.20549962,110.5941 c 0,-4.29147 -1.38858742,-2.91003 57.38039638,-57.085227 C 88.269254,25.223936 114.10547,1.69129 114.9997,1.2141067 c 3.41045,-1.81989043 8.76264,-0.47119165 11.09253,2.7952051 l 1.13995,1.5981484 0.25254,33.8401098 0.25254,33.84011 h 136.87567 c 130.81184,0 136.94938,0.04026 138.5395,0.908405 0.91511,0.499622 2.1075,1.636043 2.64976,2.525382 0.94972,1.557589 0.986,2.763353 0.98782,32.830513 0.002,34.44639 0.11305,33.21694 -3.17936,35.22444 -1.59324,0.97146 -3.63166,0.98596 -138.86109,0.98782 l -137.2441,0.002 -0.13664,33.96638 -0.13664,33.96638 -1.12648,1.57923 c -2.10897,2.95663 -7.76873,4.52462 -10.99535,3.04619 z"
           id="path5175"
           inkscape:connector-curvature="0"
           transform="rotate(90,109.62537,109.62537)" />
      </g>
    </g>
  </g>
</svg>
