<?xml version="1.0" encoding="UTF-8" standalone="no"?>
<!-- Created with Inkscape (http://www.inkscape.org/) -->

<svg
   xmlns:dc="http://purl.org/dc/elements/1.1/"
   xmlns:cc="http://creativecommons.org/ns#"
   xmlns:rdf="http://www.w3.org/1999/02/22-rdf-syntax-ns#"
   xmlns:svg="http://www.w3.org/2000/svg"
   xmlns="http://www.w3.org/2000/svg"
   xmlns:sodipodi="http://sodipodi.sourceforge.net/DTD/sodipodi-0.dtd"
   xmlns:inkscape="http://www.inkscape.org/namespaces/inkscape"
   width="107.84864mm"
   height="58.01009mm"
   viewBox="0 0 107.84864 58.01009"
   version="1.1"
   id="svg3882"
   inkscape:version="0.92.3 (3ce5693, 2018-03-11)"
   sodipodi:docname="right.svg">
  <defs
     id="defs3876">
    <clipPath
       clipPathUnits="userSpaceOnUse"
       id="clipPath1490">
      <rect
         id="rect1492"
         width="229.381"
         height="318.36765"
         x="133.85477"
         y="-503.22122"
         ry="12.5429"
         style="stroke-width:1.21995711"
         transform="rotate(90)" />
    </clipPath>
  </defs>
  <sodipodi:namedview
     id="base"
     pagecolor="#ffffff"
     bordercolor="#666666"
     borderopacity="1.0"
     inkscape:pageopacity="0.0"
     inkscape:pageshadow="2"
     inkscape:zoom="1.979899"
     inkscape:cx="21.721749"
     inkscape:cy="86.414561"
     inkscape:document-units="mm"
     inkscape:current-layer="g6321"
     showgrid="false"
     inkscape:snap-grids="true"
     inkscape:measure-start="0,0"
     inkscape:measure-end="0,0"
     inkscape:window-width="1855"
     inkscape:window-height="1020"
     inkscape:window-x="65"
     inkscape:window-y="28"
     inkscape:window-maximized="1" />
  <metadata
     id="metadata3879">
    <rdf:RDF>
      <cc:Work
         rdf:about="">
        <dc:format>image/svg+xml</dc:format>
        <dc:type
           rdf:resource="http://purl.org/dc/dcmitype/StillImage" />
        <dc:title />
      </cc:Work>
    </rdf:RDF>
  </metadata>
  <g
     inkscape:label="Layer 1"
     inkscape:groupmode="layer"
     id="layer1"
     transform="translate(-0.05515285,-0.0942113)">
    <g
       id="g6323"
       clip-path="none"
       transform="matrix(0,-0.26458333,0.26458333,0,0.05515285,58.104301)">
      <g
         inkscape:label="Clip"
         id="g6321">
        <g
           clip-path="url(#clipPath1490)"
           transform="matrix(0,1,1,0,-137.05168,-86.155006)"
           id="g4255"
           style="fill:#0066ff;fill-opacity:1">
          <path
             inkscape:connector-curvature="0"
             id="path4253"
             d="M 490.498,239.278 380.866,139.349 c -3.046,-2.474 -6.376,-2.95 -9.993,-1.427 -3.613,1.525 -5.427,4.283 -5.427,8.282 v 63.954 H 9.136 c -2.666,0 -4.856,0.855 -6.567,2.568 C 0.859,214.438 0,216.628 0,219.292 v 54.816 c 0,2.663 0.855,4.853 2.568,6.563 1.715,1.712 3.905,2.567 6.567,2.567 h 356.313 v 63.953 c 0,3.812 1.817,6.57 5.428,8.278 3.62,1.529 6.95,0.951 9.996,-1.708 L 490.504,252.684 c 1.903,-1.902 2.852,-4.182 2.852,-6.849 0,-2.468 -0.955,-4.654 -2.858,-6.557 z"
             style="fill:#0066ff;fill-opacity:1" />
        </g>
        <g
           transform="matrix(1,0,0,-1,-1.1708862,319.84517)"
           id="g4257"
           style="fill:#0066ff;fill-opacity:1" />
        <g
           transform="matrix(1,0,0,-1,-1.1708862,319.84517)"
           id="g4259"
           style="fill:#0066ff;fill-opacity:1" />
        <g
           transform="matrix(1,0,0,-1,-1.1708862,319.84517)"
           id="g4261"
           style="fill:#0066ff;fill-opacity:1" />
        <g
           transform="matrix(1,0,0,-1,-1.1708862,319.84517)"
           id="g4263"
           style="fill:#0066ff;fill-opacity:1" />
        <g
           transform="matrix(1,0,0,-1,-1.1708862,319.84517)"
           id="g4265"
           style="fill:#0066ff;fill-opacity:1" />
        <g
           transform="matrix(1,0,0,-1,-1.1708862,319.84517)"
           id="g4267"
           style="fill:#0066ff;fill-opacity:1" />
        <g
           transform="matrix(1,0,0,-1,-1.1708862,319.84517)"
           id="g4269"
           style="fill:#0066ff;fill-opacity:1" />
        <g
           transform="matrix(1,0,0,-1,-1.1708862,319.84517)"
           id="g4271"
           style="fill:#0066ff;fill-opacity:1" />
        <g
           transform="matrix(1,0,0,-1,-1.1708862,319.84517)"
           id="g4273"
           style="fill:#0066ff;fill-opacity:1" />
        <g
           transform="matrix(1,0,0,-1,-1.1708862,319.84517)"
           id="g4275"
           style="fill:#0066ff;fill-opacity:1" />
        <g
           transform="matrix(1,0,0,-1,-1.1708862,319.84517)"
           id="g4277"
           style="fill:#0066ff;fill-opacity:1" />
        <g
           transform="matrix(1,0,0,-1,-1.1708862,319.84517)"
           id="g4279"
           style="fill:#0066ff;fill-opacity:1" />
        <g
           transform="matrix(1,0,0,-1,-1.1708862,319.84517)"
           id="g4281"
           style="fill:#0066ff;fill-opacity:1" />
        <g
           transform="matrix(1,0,0,-1,-1.1708862,319.84517)"
           id="g4283"
           style="fill:#0066ff;fill-opacity:1" />
        <g
           transform="matrix(1,0,0,-1,-1.1708862,319.84517)"
           id="g4285"
           style="fill:#0066ff;fill-opacity:1" />
        <rect
           transform="scale(1,-1)"
           style="stroke-width:1.00722682;fill:#0066ff;fill-opacity:1"
           ry="7.316679"
           y="-190.39758"
           x="73.106308"
           height="190.39758"
           width="73.102463"
           id="rect1494" />
        <path
           style="fill:#0066ff;stroke-width:0.50507629;fill-opacity:1"
           d="m 284.81598,218.04757 c -2.33731,-1.07874 -3.9985,-2.73847 -4.76458,-4.76037 -0.3616,-0.95437 -0.53872,-12.28698 -0.53872,-34.46873 v -33.0469 L 141.92007,145.64258 4.3274609,145.51359 2.9761054,144.2509 c -2.86850866,-2.6803 -2.77060578,-1.45687 -2.77060578,-34.62258 0,-34.150412 -0.11608916,-32.970549 3.46303608,-35.196258 L 5.5088004,73.28768 142.51074,73.414394 279.51268,73.541102 V 40.491045 c 0,-22.183994 0.17712,-33.5175242 0.53872,-34.4718971 1.63383,-4.3121489 7.00567,-6.72993417 11.484,-5.16877904 C 293.0955,1.3942223 403.42174,102.71806 405.4452,105.46535 c 1.40764,1.91119 1.71382,6.29196 0.60331,8.63219 -1.02253,2.15481 -110.19468,101.96841 -113.49756,103.76822 -2.51931,1.37283 -5.02669,1.43176 -7.73497,0.18181 z"
           id="path122"
           inkscape:connector-curvature="0"
           transform="rotate(90,109.62537,109.62537)" />
      </g>
    </g>
  </g>
</svg>
