<?xml version="1.0" encoding="UTF-8" standalone="no"?>
<!-- Generator: Adobe Illustrator 16.0.0, SVG Export Plug-In . SVG Version: 6.00 Build 0)  -->

<svg
   xmlns:dc="http://purl.org/dc/elements/1.1/"
   xmlns:cc="http://creativecommons.org/ns#"
   xmlns:rdf="http://www.w3.org/1999/02/22-rdf-syntax-ns#"
   xmlns:svg="http://www.w3.org/2000/svg"
   xmlns="http://www.w3.org/2000/svg"
   xmlns:xlink="http://www.w3.org/1999/xlink"
   xmlns:sodipodi="http://sodipodi.sourceforge.net/DTD/sodipodi-0.dtd"
   xmlns:inkscape="http://www.inkscape.org/namespaces/inkscape"
   version="1.1"
   id="Capa_1"
   x="0px"
   y="0px"
   width="219.25073"
   height="318.30756"
   viewBox="0 0 219.25074 318.30756"
   xml:space="preserve"
   sodipodi:docname="up.svg"
   inkscape:version="0.92.3 (3ce5693, 2018-03-11)"><metadata
     id="metadata4292"><rdf:RDF><cc:Work
         rdf:about=""><dc:format>image/svg+xml</dc:format><dc:type
           rdf:resource="http://purl.org/dc/dcmitype/StillImage" /><dc:title /></cc:Work></rdf:RDF></metadata><defs
     id="defs4290"><marker
       id="Arrow2Sstart"
       inkscape:isstock="true"
       inkscape:stockid="Arrow2Sstart"
       orient="auto"
       refX="0"
       refY="0"
       style="overflow:visible"><path
         d="M 8.72,4.03 -2.21,0.02 8.72,-4 c -1.75,2.37 -1.74,5.62 0,8.03 z"
         id="Arrow2SstartPath"
         style="fill:#000000;fill-opacity:1;stroke:none"
         transform="matrix(0.3,0,0,0.3,-0.69,0)"
         inkscape:connector-curvature="0" /></marker><marker
       id="Arrow2Send"
       inkscape:isstock="true"
       inkscape:stockid="Arrow2Send"
       orient="auto"
       refX="0"
       refY="0"
       style="overflow:visible"><path
         d="M 8.72,4.03 -2.21,0.02 8.72,-4 c -1.75,2.37 -1.74,5.62 0,8.03 z"
         id="Arrow2SendPath"
         style="fill:#000000;fill-opacity:1;stroke:none"
         transform="matrix(-0.3,0,0,-0.3,0.69,0)"
         inkscape:connector-curvature="0" /></marker><clipPath
       clipPathUnits="userSpaceOnUse"
       id="clipPath1490"><rect
         id="rect1492"
         width="229.381"
         height="318.36765"
         x="133.85477"
         y="-503.22122"
         ry="12.5429"
         style="stroke-width:1.21995711"
         transform="rotate(90)" /></clipPath></defs><sodipodi:namedview
     pagecolor="#ffffff"
     bordercolor="#666666"
     borderopacity="1"
     objecttolerance="10"
     gridtolerance="10"
     guidetolerance="10"
     inkscape:pageopacity="0"
     inkscape:pageshadow="2"
     inkscape:window-width="1855"
     inkscape:window-height="1020"
     id="namedview4288"
     showgrid="false"
     inkscape:zoom="1.3529962"
     inkscape:cx="-100.48114"
     inkscape:cy="142.17994"
     inkscape:window-x="65"
     inkscape:window-y="28"
     inkscape:window-maximized="1"
     inkscape:current-layer="Capa_1"
     inkscape:snap-center="false"
     inkscape:measure-start="753.6,40.9294"
     inkscape:measure-end="752.577,-338.66"
     inkscape:snap-smooth-nodes="false"
     inkscape:snap-grids="true"
     inkscape:snap-to-guides="false"
     inkscape:snap-page="true"
     inkscape:pagecheckerboard="false"
     borderlayer="false"
     fit-margin-top="0"
     fit-margin-left="0"
     fit-margin-right="0"
     fit-margin-bottom="0"><inkscape:grid
       type="xygrid"
       id="grid1587"
       originx="-1.1708862"
       originy="-173.51082" /></sodipodi:namedview><g
     id="g6323"
     clip-path="none"
     transform="matrix(1,0,0,-1,0,318.30757)"
     style="fill:#0066ff;fill-opacity:1"><g
       inkscape:label="Clip"
       id="g6321"
       style="fill:#0066ff;fill-opacity:1"><g
         clip-path="url(#clipPath1490)"
         transform="matrix(0,1,1,0,-137.05168,-175.04843)"
         id="g4255"
         style="fill:#0066ff;fill-opacity:1"><path
           inkscape:connector-curvature="0"
           id="path4253"
           d="M 490.498,239.278 380.866,139.349 c -3.046,-2.474 -6.376,-2.95 -9.993,-1.427 -3.613,1.525 -5.427,4.283 -5.427,8.282 v 63.954 H 9.136 c -2.666,0 -4.856,0.855 -6.567,2.568 C 0.859,214.438 0,216.628 0,219.292 v 54.816 c 0,2.663 0.855,4.853 2.568,6.563 1.715,1.712 3.905,2.567 6.567,2.567 h 356.313 v 63.953 c 0,3.812 1.817,6.57 5.428,8.278 3.62,1.529 6.95,0.951 9.996,-1.708 L 490.504,252.684 c 1.903,-1.902 2.852,-4.182 2.852,-6.849 0,-2.468 -0.955,-4.654 -2.858,-6.557 z"
           style="fill:#0066ff;fill-opacity:1" /></g><g
         transform="matrix(1,0,0,-1,-1.1708862,319.84517)"
         id="g4257"
         style="fill:#0066ff;fill-opacity:1" /><g
         transform="matrix(1,0,0,-1,-1.1708862,319.84517)"
         id="g4259"
         style="fill:#0066ff;fill-opacity:1" /><g
         transform="matrix(1,0,0,-1,-1.1708862,319.84517)"
         id="g4261"
         style="fill:#0066ff;fill-opacity:1" /><g
         transform="matrix(1,0,0,-1,-1.1708862,319.84517)"
         id="g4263"
         style="fill:#0066ff;fill-opacity:1" /><g
         transform="matrix(1,0,0,-1,-1.1708862,319.84517)"
         id="g4265"
         style="fill:#0066ff;fill-opacity:1" /><g
         transform="matrix(1,0,0,-1,-1.1708862,319.84517)"
         id="g4267"
         style="fill:#0066ff;fill-opacity:1" /><g
         transform="matrix(1,0,0,-1,-1.1708862,319.84517)"
         id="g4269"
         style="fill:#0066ff;fill-opacity:1" /><g
         transform="matrix(1,0,0,-1,-1.1708862,319.84517)"
         id="g4271"
         style="fill:#0066ff;fill-opacity:1" /><g
         transform="matrix(1,0,0,-1,-1.1708862,319.84517)"
         id="g4273"
         style="fill:#0066ff;fill-opacity:1" /><g
         transform="matrix(1,0,0,-1,-1.1708862,319.84517)"
         id="g4275"
         style="fill:#0066ff;fill-opacity:1" /><g
         transform="matrix(1,0,0,-1,-1.1708862,319.84517)"
         id="g4277"
         style="fill:#0066ff;fill-opacity:1" /><g
         transform="matrix(1,0,0,-1,-1.1708862,319.84517)"
         id="g4279"
         style="fill:#0066ff;fill-opacity:1" /><g
         transform="matrix(1,0,0,-1,-1.1708862,319.84517)"
         id="g4281"
         style="fill:#0066ff;fill-opacity:1" /><g
         transform="matrix(1,0,0,-1,-1.1708862,319.84517)"
         id="g4283"
         style="fill:#0066ff;fill-opacity:1" /><g
         transform="matrix(1,0,0,-1,-1.1708862,319.84517)"
         id="g4285"
         style="fill:#0066ff;fill-opacity:1" /><rect
         transform="scale(1,-1)"
         style="stroke-width:1.00722682;fill:#0066ff;fill-opacity:1"
         ry="7.316679"
         y="-190.39758"
         x="73.106308"
         height="190.39758"
         width="73.102463"
         id="rect1494" /></g></g><use
     height="100%"
     width="100%"
     id="use6327"
     xlink:href="#g6321"
     y="0"
     x="0"
     transform="matrix(1,0,0,-1,0,318.30757)"
     style="fill:#0066ff;fill-opacity:1" /><path
     style="fill:#0066ff;stroke-width:0.7391004;fill-opacity:1"
     d="m 75.451621,315.79071 -1.948535,-1.94854 V 220.81632 127.79045 H 40.58938 c -26.277632,0 -33.4048017,-0.20519 -35.3494545,-1.01772 C 0.25282788,124.68899 -1.144617,116.59145 2.7546366,112.37165 3.7456953,111.29912 26.880705,85.910275 54.16577,55.951991 107.61782,-2.7369481 105.67454,-0.86741264 111.54218,0.75271843 113.65009,1.3347432 123.34289,11.482644 166.20346,57.980556 c 55.5653,60.280834 54.30152,58.734984 52.18844,63.836404 -0.4857,1.17259 -1.71438,2.91317 -2.73038,3.86796 l -1.84729,1.73598 -33.93966,0.20626 -33.93965,0.20626 v 92.6789 92.67891 l -1.91345,2.27401 -1.91345,2.27401 H 109.75409 77.400163 Z"
     id="path120"
     inkscape:connector-curvature="0" /></svg>