<?xml version="1.0" encoding="UTF-8" standalone="no"?>
<!-- Created with Inkscape (http://www.inkscape.org/) -->

<svg
   xmlns:dc="http://purl.org/dc/elements/1.1/"
   xmlns:cc="http://creativecommons.org/ns#"
   xmlns:rdf="http://www.w3.org/1999/02/22-rdf-syntax-ns#"
   xmlns:svg="http://www.w3.org/2000/svg"
   xmlns="http://www.w3.org/2000/svg"
   xmlns:sodipodi="http://sodipodi.sourceforge.net/DTD/sodipodi-0.dtd"
   xmlns:inkscape="http://www.inkscape.org/namespaces/inkscape"
   width="107.84864mm"
   height="58.01009mm"
   viewBox="0 0 107.84864 58.01009"
   version="1.1"
   id="svg3882"
   inkscape:version="0.92.3 (3ce5693, 2018-03-11)"
   sodipodi:docname="left.svg">
  <defs
     id="defs3876">
    <clipPath
       clipPathUnits="userSpaceOnUse"
       id="clipPath1490">
      <rect
         id="rect1492"
         width="229.381"
         height="318.36765"
         x="133.85477"
         y="-503.22122"
         ry="12.5429"
         style="stroke-width:1.21995711"
         transform="rotate(90)" />
    </clipPath>
  </defs>
  <sodipodi:namedview
     id="base"
     pagecolor="#ffffff"
     bordercolor="#666666"
     borderopacity="1.0"
     inkscape:pageopacity="0.0"
     inkscape:pageshadow="2"
     inkscape:zoom="1.979899"
     inkscape:cx="189.40707"
     inkscape:cy="86.414561"
     inkscape:document-units="mm"
     inkscape:current-layer="g6321"
     showgrid="false"
     inkscape:snap-grids="true"
     inkscape:measure-start="0,0"
     inkscape:measure-end="0,0"
     inkscape:window-width="1855"
     inkscape:window-height="1020"
     inkscape:window-x="65"
     inkscape:window-y="28"
     inkscape:window-maximized="1" />
  <metadata
     id="metadata3879">
    <rdf:RDF>
      <cc:Work
         rdf:about="">
        <dc:format>image/svg+xml</dc:format>
        <dc:type
           rdf:resource="http://purl.org/dc/dcmitype/StillImage" />
        <dc:title></dc:title>
      </cc:Work>
    </rdf:RDF>
  </metadata>
  <g
     inkscape:label="Layer 1"
     inkscape:groupmode="layer"
     id="layer1"
     transform="translate(-0.05515285,-0.0942113)">
    <g
       id="g6323"
       clip-path="none"
       transform="matrix(0,-0.26458333,0.26458333,0,0.05515285,58.104301)">
      <g
         inkscape:label="Clip"
         id="g6321">
        <g
           clip-path="url(#clipPath1490)"
           transform="rotate(-90,178.15215,315.20383)"
           id="g4255">
          <path
             inkscape:connector-curvature="0"
             id="path4253"
             d="M 490.498,239.278 380.866,139.349 c -3.046,-2.474 -6.376,-2.95 -9.993,-1.427 -3.613,1.525 -5.427,4.283 -5.427,8.282 v 63.954 H 9.136 c -2.666,0 -4.856,0.855 -6.567,2.568 C 0.859,214.438 0,216.628 0,219.292 v 54.816 c 0,2.663 0.855,4.853 2.568,6.563 1.715,1.712 3.905,2.567 6.567,2.567 h 356.313 v 63.953 c 0,3.812 1.817,6.57 5.428,8.278 3.62,1.529 6.95,0.951 9.996,-1.708 L 490.504,252.684 c 1.903,-1.902 2.852,-4.182 2.852,-6.849 0,-2.468 -0.955,-4.654 -2.858,-6.557 z" />
        </g>
        <g
           transform="translate(-1.1708862,87.355804)"
           id="g4257" />
        <g
           transform="translate(-1.1708862,87.355804)"
           id="g4259" />
        <g
           transform="translate(-1.1708862,87.355804)"
           id="g4261" />
        <g
           transform="translate(-1.1708862,87.355804)"
           id="g4263" />
        <g
           transform="translate(-1.1708862,87.355804)"
           id="g4265" />
        <g
           transform="translate(-1.1708862,87.355804)"
           id="g4267" />
        <g
           transform="translate(-1.1708862,87.355804)"
           id="g4269" />
        <g
           transform="translate(-1.1708862,87.355804)"
           id="g4271" />
        <g
           transform="translate(-1.1708862,87.355804)"
           id="g4273" />
        <g
           transform="translate(-1.1708862,87.355804)"
           id="g4275" />
        <g
           transform="translate(-1.1708862,87.355804)"
           id="g4277" />
        <g
           transform="translate(-1.1708862,87.355804)"
           id="g4279" />
        <g
           transform="translate(-1.1708862,87.355804)"
           id="g4281" />
        <g
           transform="translate(-1.1708862,87.355804)"
           id="g4283" />
        <g
           transform="translate(-1.1708862,87.355804)"
           id="g4285" />
        <rect
           style="stroke-width:1.00722682"
           ry="7.316679"
           y="216.80341"
           x="73.1063"
           height="190.39758"
           width="73.102463"
           id="rect1494" />
      </g>
    </g>
  </g>
</svg>
