<?xml version="1.0" encoding="UTF-8" standalone="no"?>
<!-- Created with Inkscape (http://www.inkscape.org/) -->

<svg
   xmlns:dc="http://purl.org/dc/elements/1.1/"
   xmlns:cc="http://creativecommons.org/ns#"
   xmlns:rdf="http://www.w3.org/1999/02/22-rdf-syntax-ns#"
   xmlns:svg="http://www.w3.org/2000/svg"
   xmlns="http://www.w3.org/2000/svg"
   xmlns:sodipodi="http://sodipodi.sourceforge.net/DTD/sodipodi-0.dtd"
   xmlns:inkscape="http://www.inkscape.org/namespaces/inkscape"
   width="107.84864mm"
   height="58.01009mm"
   viewBox="0 0 107.84864 58.01009"
   version="1.1"
   id="svg3882"
   inkscape:version="0.92.3 (3ce5693, 2018-03-11)"
   sodipodi:docname="left.svg">
  <defs
     id="defs3876">
    <clipPath
       clipPathUnits="userSpaceOnUse"
       id="clipPath1490">
      <rect
         id="rect1492"
         width="229.381"
         height="318.36765"
         x="133.85477"
         y="-503.22122"
         ry="12.5429"
         style="stroke-width:1.21995711"
         transform="rotate(90)" />
    </clipPath>
  </defs>
  <sodipodi:namedview
     id="base"
     pagecolor="#ffffff"
     bordercolor="#666666"
     borderopacity="1.0"
     inkscape:pageopacity="0.0"
     inkscape:pageshadow="2"
     inkscape:zoom="1.979899"
     inkscape:cx="21.721749"
     inkscape:cy="86.414561"
     inkscape:document-units="mm"
     inkscape:current-layer="g6321"
     showgrid="false"
     inkscape:snap-grids="true"
     inkscape:measure-start="0,0"
     inkscape:measure-end="0,0"
     inkscape:window-width="1855"
     inkscape:window-height="1020"
     inkscape:window-x="65"
     inkscape:window-y="28"
     inkscape:window-maximized="1" />
  <metadata
     id="metadata3879">
    <rdf:RDF>
      <cc:Work
         rdf:about="">
        <dc:format>image/svg+xml</dc:format>
        <dc:type
           rdf:resource="http://purl.org/dc/dcmitype/StillImage" />
        <dc:title />
      </cc:Work>
    </rdf:RDF>
  </metadata>
  <g
     inkscape:label="Layer 1"
     inkscape:groupmode="layer"
     id="layer1"
     transform="translate(-0.05515285,-0.0942113)">
    <g
       id="g6323"
       clip-path="none"
       transform="matrix(0,-0.26458333,0.26458333,0,0.05515285,58.104301)">
      <g
         inkscape:label="Clip"
         id="g6321">
        <g
           clip-path="url(#clipPath1490)"
           transform="rotate(-90,178.15215,315.20383)"
           id="g4255"
           style="fill:#6600ff;fill-opacity:1">
          <path
             inkscape:connector-curvature="0"
             id="path4253"
             d="M 490.498,239.278 380.866,139.349 c -3.046,-2.474 -6.376,-2.95 -9.993,-1.427 -3.613,1.525 -5.427,4.283 -5.427,8.282 v 63.954 H 9.136 c -2.666,0 -4.856,0.855 -6.567,2.568 C 0.859,214.438 0,216.628 0,219.292 v 54.816 c 0,2.663 0.855,4.853 2.568,6.563 1.715,1.712 3.905,2.567 6.567,2.567 h 356.313 v 63.953 c 0,3.812 1.817,6.57 5.428,8.278 3.62,1.529 6.95,0.951 9.996,-1.708 L 490.504,252.684 c 1.903,-1.902 2.852,-4.182 2.852,-6.849 0,-2.468 -0.955,-4.654 -2.858,-6.557 z"
             style="fill:#6600ff;fill-opacity:1" />
        </g>
        <g
           transform="translate(-1.1708862,87.355804)"
           id="g4257"
           style="fill:#6600ff;fill-opacity:1" />
        <g
           transform="translate(-1.1708862,87.355804)"
           id="g4259"
           style="fill:#6600ff;fill-opacity:1" />
        <g
           transform="translate(-1.1708862,87.355804)"
           id="g4261"
           style="fill:#6600ff;fill-opacity:1" />
        <g
           transform="translate(-1.1708862,87.355804)"
           id="g4263"
           style="fill:#6600ff;fill-opacity:1" />
        <g
           transform="translate(-1.1708862,87.355804)"
           id="g4265"
           style="fill:#6600ff;fill-opacity:1" />
        <g
           transform="translate(-1.1708862,87.355804)"
           id="g4267"
           style="fill:#6600ff;fill-opacity:1" />
        <g
           transform="translate(-1.1708862,87.355804)"
           id="g4269"
           style="fill:#6600ff;fill-opacity:1" />
        <g
           transform="translate(-1.1708862,87.355804)"
           id="g4271"
           style="fill:#6600ff;fill-opacity:1" />
        <g
           transform="translate(-1.1708862,87.355804)"
           id="g4273"
           style="fill:#6600ff;fill-opacity:1" />
        <g
           transform="translate(-1.1708862,87.355804)"
           id="g4275"
           style="fill:#6600ff;fill-opacity:1" />
        <g
           transform="translate(-1.1708862,87.355804)"
           id="g4277"
           style="fill:#6600ff;fill-opacity:1" />
        <g
           transform="translate(-1.1708862,87.355804)"
           id="g4279"
           style="fill:#6600ff;fill-opacity:1" />
        <g
           transform="translate(-1.1708862,87.355804)"
           id="g4281"
           style="fill:#6600ff;fill-opacity:1" />
        <g
           transform="translate(-1.1708862,87.355804)"
           id="g4283"
           style="fill:#6600ff;fill-opacity:1" />
        <g
           transform="translate(-1.1708862,87.355804)"
           id="g4285"
           style="fill:#6600ff;fill-opacity:1" />
        <rect
           style="stroke-width:1.00722682;fill:#6600ff;fill-opacity:1"
           ry="7.316679"
           y="216.80341"
           x="73.1063"
           height="190.39758"
           width="73.102463"
           id="rect1494" />
        <path
           style="fill:#6600ff;fill-opacity:1;stroke-width:0.50507629"
           d="M 115.03804,218.10506 C 112.59575,216.98035 2.2811409,116.41415 1.2032624,114.32976 -0.01009714,111.98339 0.15872723,108.29225 1.586689,105.94661 3.0579369,103.52987 111.91625,3.0299252 114.78426,1.440581 c 2.47458,-1.3713176 4.98751,-1.43218393 7.7002,-0.186509 2.40307,1.1034894 3.47994,2.2298576 4.52643,4.7344582 0.67209,1.6085482 0.77688,6.2895788 0.77688,34.7059508 v 32.846621 l 137.08983,-0.126708 137.08984,-0.126714 1.39612,1.041361 c 0.76787,0.572747 1.86474,1.668873 2.43748,2.435832 1.0217,1.36813 1.04385,1.978086 1.17303,32.293677 0.14696,34.49103 0.27566,33.13025 -3.36308,35.56109 l -1.7162,1.14648 H 264.84128 127.78777 l -0.0111,32.95623 c -0.0104,30.89665 -0.0691,33.08249 -0.93882,34.97653 -1.10349,2.40307 -2.22985,3.47994 -4.73446,4.52643 -2.40512,1.00493 -4.70711,0.96574 -7.06535,-0.12025 z"
           id="path2592"
           inkscape:connector-curvature="0"
           transform="rotate(90,109.62537,109.62537)" />
      </g>
    </g>
  </g>
</svg>
