<?xml version="1.0" encoding="UTF-8" standalone="no"?>
<!-- Created with Inkscape (http://www.inkscape.org/) -->

<svg
   xmlns:dc="http://purl.org/dc/elements/1.1/"
   xmlns:cc="http://creativecommons.org/ns#"
   xmlns:rdf="http://www.w3.org/1999/02/22-rdf-syntax-ns#"
   xmlns:svg="http://www.w3.org/2000/svg"
   xmlns="http://www.w3.org/2000/svg"
   xmlns:sodipodi="http://sodipodi.sourceforge.net/DTD/sodipodi-0.dtd"
   xmlns:inkscape="http://www.inkscape.org/namespaces/inkscape"
   width="130.53377mm"
   height="58.01009mm"
   viewBox="0 0 130.53377 58.01009"
   version="1.1"
   id="svg8"
   inkscape:version="0.92.2 (5c3e80d, 2017-08-06)"
   sodipodi:docname="path right.svg">
  <defs
     id="defs2" />
  <sodipodi:namedview
     id="base"
     pagecolor="#ffffff"
     bordercolor="#666666"
     borderopacity="1.0"
     inkscape:pageopacity="0.0"
     inkscape:pageshadow="2"
     inkscape:zoom="0.35"
     inkscape:cx="275.24942"
     inkscape:cy="149.62536"
     inkscape:document-units="mm"
     inkscape:current-layer="layer1"
     showgrid="false"
     fit-margin-top="0"
     fit-margin-left="0"
     fit-margin-right="0"
     fit-margin-bottom="0"
     inkscape:window-width="511"
     inkscape:window-height="405"
     inkscape:window-x="239"
     inkscape:window-y="337"
     inkscape:window-maximized="0" />
  <metadata
     id="metadata5">
    <rdf:RDF>
      <cc:Work
         rdf:about="">
        <dc:format>image/svg+xml</dc:format>
        <dc:type
           rdf:resource="http://purl.org/dc/dcmitype/StillImage" />
        <dc:title></dc:title>
      </cc:Work>
    </rdf:RDF>
  </metadata>
  <g
     inkscape:label="Calque 1"
     inkscape:groupmode="layer"
     id="layer1"
     transform="translate(-33.006923,-100.17353)">
    <g
       id="g48"
       transform="matrix(0.26458333,0,0,0.26458333,33.006923,63.911936)">
      <g
         id="g4255">
        <path
           inkscape:connector-curvature="0"
           id="path4253"
           d="M 490.498,239.278 380.866,139.349 c -3.046,-2.474 -6.376,-2.95 -9.993,-1.427 -3.613,1.525 -5.427,4.283 -5.427,8.282 v 63.954 H 9.136 c -2.666,0 -4.856,0.855 -6.567,2.568 C 0.859,214.438 0,216.628 0,219.292 v 54.816 c 0,2.663 0.855,4.853 2.568,6.563 1.715,1.712 3.905,2.567 6.567,2.567 h 356.313 v 63.953 c 0,3.812 1.817,6.57 5.428,8.278 3.62,1.529 6.95,0.951 9.996,-1.708 L 490.504,252.684 c 1.903,-1.902 2.852,-4.182 2.852,-6.849 0,-2.468 -0.955,-4.654 -2.858,-6.557 z" />
      </g>
      <g
         id="g4257" />
      <g
         id="g4259" />
      <g
         id="g4261" />
      <g
         id="g4263" />
      <g
         id="g4265" />
      <g
         id="g4267" />
      <g
         id="g4269" />
      <g
         id="g4271" />
      <g
         id="g4273" />
      <g
         id="g4275" />
      <g
         id="g4277" />
      <g
         id="g4279" />
      <g
         id="g4281" />
      <g
         id="g4283" />
      <g
         id="g4285" />
    </g>
  </g>
</svg>
