<?xml version="1.0" encoding="UTF-8" standalone="no"?>
<!-- Created with Inkscape (http://www.inkscape.org/) -->

<svg
   xmlns:dc="http://purl.org/dc/elements/1.1/"
   xmlns:cc="http://creativecommons.org/ns#"
   xmlns:rdf="http://www.w3.org/1999/02/22-rdf-syntax-ns#"
   xmlns:svg="http://www.w3.org/2000/svg"
   xmlns="http://www.w3.org/2000/svg"
   xmlns:sodipodi="http://sodipodi.sourceforge.net/DTD/sodipodi-0.dtd"
   xmlns:inkscape="http://www.inkscape.org/namespaces/inkscape"
   width="107.84864mm"
   height="58.01009mm"
   viewBox="0 0 107.84864 58.01009"
   version="1.1"
   id="svg3882"
   inkscape:version="0.92.3 (3ce5693, 2018-03-11)"
   sodipodi:docname="right.svg">
  <defs
     id="defs3876">
    <clipPath
       clipPathUnits="userSpaceOnUse"
       id="clipPath1490">
      <rect
         id="rect1492"
         width="229.381"
         height="318.36765"
         x="133.85477"
         y="-503.22122"
         ry="12.5429"
         style="stroke-width:1.21995711"
         transform="rotate(90)" />
    </clipPath>
  </defs>
  <sodipodi:namedview
     id="base"
     pagecolor="#ffffff"
     bordercolor="#666666"
     borderopacity="1.0"
     inkscape:pageopacity="0.0"
     inkscape:pageshadow="2"
     inkscape:zoom="1.979899"
     inkscape:cx="21.721749"
     inkscape:cy="86.414561"
     inkscape:document-units="mm"
     inkscape:current-layer="g6321"
     showgrid="false"
     inkscape:snap-grids="true"
     inkscape:measure-start="0,0"
     inkscape:measure-end="0,0"
     inkscape:window-width="1855"
     inkscape:window-height="1020"
     inkscape:window-x="65"
     inkscape:window-y="28"
     inkscape:window-maximized="1" />
  <metadata
     id="metadata3879">
    <rdf:RDF>
      <cc:Work
         rdf:about="">
        <dc:format>image/svg+xml</dc:format>
        <dc:type
           rdf:resource="http://purl.org/dc/dcmitype/StillImage" />
        <dc:title />
      </cc:Work>
    </rdf:RDF>
  </metadata>
  <g
     inkscape:label="Layer 1"
     inkscape:groupmode="layer"
     id="layer1"
     transform="translate(-0.05515285,-0.0942113)">
    <g
       id="g6323"
       clip-path="none"
       transform="matrix(0,-0.26458333,0.26458333,0,0.05515285,58.104301)">
      <g
         inkscape:label="Clip"
         id="g6321">
        <g
           clip-path="url(#clipPath1490)"
           transform="matrix(0,1,1,0,-137.05168,-86.155006)"
           id="g4255"
           style="fill:#6600ff;fill-opacity:1">
          <path
             inkscape:connector-curvature="0"
             id="path4253"
             d="M 490.498,239.278 380.866,139.349 c -3.046,-2.474 -6.376,-2.95 -9.993,-1.427 -3.613,1.525 -5.427,4.283 -5.427,8.282 v 63.954 H 9.136 c -2.666,0 -4.856,0.855 -6.567,2.568 C 0.859,214.438 0,216.628 0,219.292 v 54.816 c 0,2.663 0.855,4.853 2.568,6.563 1.715,1.712 3.905,2.567 6.567,2.567 h 356.313 v 63.953 c 0,3.812 1.817,6.57 5.428,8.278 3.62,1.529 6.95,0.951 9.996,-1.708 L 490.504,252.684 c 1.903,-1.902 2.852,-4.182 2.852,-6.849 0,-2.468 -0.955,-4.654 -2.858,-6.557 z"
             style="fill:#6600ff;fill-opacity:1" />
        </g>
        <g
           transform="matrix(1,0,0,-1,-1.1708862,319.84517)"
           id="g4257"
           style="fill:#6600ff;fill-opacity:1" />
        <g
           transform="matrix(1,0,0,-1,-1.1708862,319.84517)"
           id="g4259"
           style="fill:#6600ff;fill-opacity:1" />
        <g
           transform="matrix(1,0,0,-1,-1.1708862,319.84517)"
           id="g4261"
           style="fill:#6600ff;fill-opacity:1" />
        <g
           transform="matrix(1,0,0,-1,-1.1708862,319.84517)"
           id="g4263"
           style="fill:#6600ff;fill-opacity:1" />
        <g
           transform="matrix(1,0,0,-1,-1.1708862,319.84517)"
           id="g4265"
           style="fill:#6600ff;fill-opacity:1" />
        <g
           transform="matrix(1,0,0,-1,-1.1708862,319.84517)"
           id="g4267"
           style="fill:#6600ff;fill-opacity:1" />
        <g
           transform="matrix(1,0,0,-1,-1.1708862,319.84517)"
           id="g4269"
           style="fill:#6600ff;fill-opacity:1" />
        <g
           transform="matrix(1,0,0,-1,-1.1708862,319.84517)"
           id="g4271"
           style="fill:#6600ff;fill-opacity:1" />
        <g
           transform="matrix(1,0,0,-1,-1.1708862,319.84517)"
           id="g4273"
           style="fill:#6600ff;fill-opacity:1" />
        <g
           transform="matrix(1,0,0,-1,-1.1708862,319.84517)"
           id="g4275"
           style="fill:#6600ff;fill-opacity:1" />
        <g
           transform="matrix(1,0,0,-1,-1.1708862,319.84517)"
           id="g4277"
           style="fill:#6600ff;fill-opacity:1" />
        <g
           transform="matrix(1,0,0,-1,-1.1708862,319.84517)"
           id="g4279"
           style="fill:#6600ff;fill-opacity:1" />
        <g
           transform="matrix(1,0,0,-1,-1.1708862,319.84517)"
           id="g4281"
           style="fill:#6600ff;fill-opacity:1" />
        <g
           transform="matrix(1,0,0,-1,-1.1708862,319.84517)"
           id="g4283"
           style="fill:#6600ff;fill-opacity:1" />
        <g
           transform="matrix(1,0,0,-1,-1.1708862,319.84517)"
           id="g4285"
           style="fill:#6600ff;fill-opacity:1" />
        <rect
           transform="scale(1,-1)"
           style="stroke-width:1.00722682;fill:#6600ff;fill-opacity:1"
           ry="7.316679"
           y="-190.39758"
           x="73.106308"
           height="190.39758"
           width="73.102463"
           id="rect1494" />
        <path
           style="fill:#6600ff;fill-opacity:1;stroke-width:0.50507629"
           d="m 285.77126,218.50296 c -2.07517,-0.62555 -4.35472,-2.42657 -5.33181,-4.21255 -0.80239,-1.46665 -0.88836,-4.42271 -1.01968,-35.06298 l -0.1434,-33.46131 -136.9848,-0.002 C 7.3193271,145.76208 5.2830137,145.74774 3.6897928,144.77629 2.8004553,144.23403 1.6640337,143.04163 1.1644114,142.12653 0.31772676,140.57587 0.25600724,138.3463 0.25600724,109.31131 c 0,-30.675034 0.0159286,-31.172862 1.04136046,-32.54622 0.5727483,-0.76708 1.6696161,-1.863302 2.4374839,-2.436049 l 1.3961235,-1.041361 137.0726949,0.126668 137.07269,0.126673 0.14341,-33.461704 c 0.13267,-30.9542344 0.21071,-33.5848721 1.04138,-35.1053568 2.07488,-3.7978847 7.94687,-5.74451745 11.58917,-3.8419442 2.04015,1.0656805 110.38459,100.644054 112.86685,103.734884 2.17537,2.70868 2.61115,5.68118 1.27554,8.70055 -1.12553,2.54443 2.19066,-0.54887 -67.78814,63.23223 -24.3068,22.15406 -45.03743,40.71264 -46.06809,41.2413 -1.95454,1.00256 -4.23872,1.16329 -6.56522,0.46198 z"
           id="path2594"
           inkscape:connector-curvature="0"
           transform="rotate(90,109.62537,109.62537)" />
      </g>
    </g>
  </g>
</svg>
