<?xml version="1.0" encoding="UTF-8" standalone="no"?>
<!-- Created with Inkscape (http://www.inkscape.org/) -->

<svg
   xmlns:dc="http://purl.org/dc/elements/1.1/"
   xmlns:cc="http://creativecommons.org/ns#"
   xmlns:rdf="http://www.w3.org/1999/02/22-rdf-syntax-ns#"
   xmlns:svg="http://www.w3.org/2000/svg"
   xmlns="http://www.w3.org/2000/svg"
   xmlns:xlink="http://www.w3.org/1999/xlink"
   xmlns:sodipodi="http://sodipodi.sourceforge.net/DTD/sodipodi-0.dtd"
   xmlns:inkscape="http://www.inkscape.org/namespaces/inkscape"
   width="58.01009mm"
   height="84.21888mm"
   viewBox="0 0 58.01009 84.21888"
   version="1.1"
   id="svg8"
   sodipodi:docname="bank top.svg"
   inkscape:version="0.92.2 (5c3e80d, 2017-08-06)">
  <defs
     id="defs2">
    <marker
       style="overflow:visible"
       refY="0"
       refX="0"
       orient="auto"
       inkscape:stockid="Arrow2Sstart"
       inkscape:isstock="true"
       id="Arrow2Sstart">
      <path
         inkscape:connector-curvature="0"
         transform="matrix(0.3,0,0,0.3,-0.69,0)"
         style="fill:#000000;fill-opacity:1;stroke:none"
         id="Arrow2SstartPath"
         d="M 8.72,4.03 -2.21,0.02 8.72,-4 c -1.75,2.37 -1.74,5.62 0,8.03 z" />
    </marker>
    <marker
       style="overflow:visible"
       refY="0"
       refX="0"
       orient="auto"
       inkscape:stockid="Arrow2Send"
       inkscape:isstock="true"
       id="Arrow2Send">
      <path
         inkscape:connector-curvature="0"
         transform="matrix(-0.3,0,0,-0.3,0.69,0)"
         style="fill:#000000;fill-opacity:1;stroke:none"
         id="Arrow2SendPath"
         d="M 8.72,4.03 -2.21,0.02 8.72,-4 c -1.75,2.37 -1.74,5.62 0,8.03 z" />
    </marker>
    <clipPath
       id="clipPath1490"
       clipPathUnits="userSpaceOnUse">
      <rect
         transform="rotate(90)"
         style="stroke-width:1.21995711"
         ry="12.5429"
         y="-503.22122"
         x="133.85477"
         height="318.36765"
         width="229.381"
         id="rect1492" />
    </clipPath>
  </defs>
  <sodipodi:namedview
     id="base"
     pagecolor="#ffffff"
     bordercolor="#666666"
     borderopacity="1.0"
     inkscape:pageopacity="0.0"
     inkscape:pageshadow="2"
     inkscape:zoom="0.35"
     inkscape:cx="41.053934"
     inkscape:cy="27.72521"
     inkscape:document-units="mm"
     inkscape:current-layer="layer1"
     showgrid="false"
     fit-margin-top="0"
     fit-margin-left="0"
     fit-margin-right="0"
     fit-margin-bottom="0"
     inkscape:window-width="1920"
     inkscape:window-height="1017"
     inkscape:window-x="-8"
     inkscape:window-y="-8"
     inkscape:window-maximized="1" />
  <metadata
     id="metadata5">
    <rdf:RDF>
      <cc:Work
         rdf:about="">
        <dc:format>image/svg+xml</dc:format>
        <dc:type
           rdf:resource="http://purl.org/dc/dcmitype/StillImage" />
        <dc:title></dc:title>
      </cc:Work>
    </rdf:RDF>
  </metadata>
  <g
     inkscape:label="Calque 1"
     inkscape:groupmode="layer"
     id="layer1"
     transform="translate(-94.971147,-71.950085)">
    <g
       id="g69"
       transform="matrix(0.26458333,0,0,0.26458333,94.971145,71.950098)"
       style="fill:#0066ff">
      <g
         transform="matrix(1,0,0,-1,0,318.30757)"
         clip-path="none"
         id="g6323"
         style="fill:#0066ff">
        <g
           id="g6321"
           inkscape:label="Clip"
           style="fill:#0066ff">
          <g
             id="g4255"
             transform="matrix(0,1,1,0,-137.05168,-175.04843)"
             clip-path="url(#clipPath1490)"
             style="fill:#0066ff">
            <path
               d="M 490.498,239.278 380.866,139.349 c -3.046,-2.474 -6.376,-2.95 -9.993,-1.427 -3.613,1.525 -5.427,4.283 -5.427,8.282 v 63.954 H 9.136 c -2.666,0 -4.856,0.855 -6.567,2.568 C 0.859,214.438 0,216.628 0,219.292 v 54.816 c 0,2.663 0.855,4.853 2.568,6.563 1.715,1.712 3.905,2.567 6.567,2.567 h 356.313 v 63.953 c 0,3.812 1.817,6.57 5.428,8.278 3.62,1.529 6.95,0.951 9.996,-1.708 L 490.504,252.684 c 1.903,-1.902 2.852,-4.182 2.852,-6.849 0,-2.468 -0.955,-4.654 -2.858,-6.557 z"
               id="path4253"
               inkscape:connector-curvature="0"
               style="fill:#0066ff" />
          </g>
          <g
             id="g4257"
             transform="matrix(1,0,0,-1,-1.1708862,319.84517)"
             style="fill:#0066ff" />
          <g
             id="g4259"
             transform="matrix(1,0,0,-1,-1.1708862,319.84517)"
             style="fill:#0066ff" />
          <g
             id="g4261"
             transform="matrix(1,0,0,-1,-1.1708862,319.84517)"
             style="fill:#0066ff" />
          <g
             id="g4263"
             transform="matrix(1,0,0,-1,-1.1708862,319.84517)"
             style="fill:#0066ff" />
          <g
             id="g4265"
             transform="matrix(1,0,0,-1,-1.1708862,319.84517)"
             style="fill:#0066ff" />
          <g
             id="g4267"
             transform="matrix(1,0,0,-1,-1.1708862,319.84517)"
             style="fill:#0066ff" />
          <g
             id="g4269"
             transform="matrix(1,0,0,-1,-1.1708862,319.84517)"
             style="fill:#0066ff" />
          <g
             id="g4271"
             transform="matrix(1,0,0,-1,-1.1708862,319.84517)"
             style="fill:#0066ff" />
          <g
             id="g4273"
             transform="matrix(1,0,0,-1,-1.1708862,319.84517)"
             style="fill:#0066ff" />
          <g
             id="g4275"
             transform="matrix(1,0,0,-1,-1.1708862,319.84517)"
             style="fill:#0066ff" />
          <g
             id="g4277"
             transform="matrix(1,0,0,-1,-1.1708862,319.84517)"
             style="fill:#0066ff" />
          <g
             id="g4279"
             transform="matrix(1,0,0,-1,-1.1708862,319.84517)"
             style="fill:#0066ff" />
          <g
             id="g4281"
             transform="matrix(1,0,0,-1,-1.1708862,319.84517)"
             style="fill:#0066ff" />
          <g
             id="g4283"
             transform="matrix(1,0,0,-1,-1.1708862,319.84517)"
             style="fill:#0066ff" />
          <g
             id="g4285"
             transform="matrix(1,0,0,-1,-1.1708862,319.84517)"
             style="fill:#0066ff" />
          <rect
             id="rect1494"
             width="73.102463"
             height="190.39758"
             x="73.106308"
             y="-190.39758"
             ry="7.316679"
             style="fill:#0066ff;stroke-width:1.00722682"
             transform="scale(1,-1)" />
        </g>
      </g>
      <use
         transform="matrix(1,0,0,-1,0,318.30757)"
         x="0"
         y="0"
         xlink:href="#g6321"
         id="use6327"
         width="100%"
         height="100%"
         style="fill:#0066ff" />
    </g>
  </g>
</svg>
